<mxfile host="65bd71144e">
    <diagram id="Qa_I_rBq9YHPdSYzwlEM" name="Page-1">
        <mxGraphModel dx="318" dy="322" grid="1" gridSize="10" guides="1" tooltips="1" connect="1" arrows="1" fold="1" page="1" pageScale="1" pageWidth="850" pageHeight="1100" math="0" shadow="0">
            <root>
                <mxCell id="0"/>
                <mxCell id="1" parent="0"/>
                <mxCell id="19" style="edgeStyle=none;html=1;exitX=0.5;exitY=1;exitDx=0;exitDy=0;entryX=1.003;entryY=0.084;entryDx=0;entryDy=0;entryPerimeter=0;" parent="1" source="2" target="14" edge="1">
                    <mxGeometry relative="1" as="geometry">
                        <Array as="points">
                            <mxPoint x="550" y="383"/>
                        </Array>
                    </mxGeometry>
                </mxCell>
                <mxCell id="2" value="Pass" style="swimlane;fontStyle=1;align=center;verticalAlign=top;childLayout=stackLayout;horizontal=1;startSize=26;horizontalStack=0;resizeParent=1;resizeParentMax=0;resizeLast=0;collapsible=1;marginBottom=0;rounded=1;" parent="1" vertex="1">
                    <mxGeometry x="470" y="211" width="160" height="80" as="geometry"/>
                </mxCell>
                <mxCell id="3" value="+ date&#10;+ time&#10;+ registration number" style="text;strokeColor=none;fillColor=none;align=left;verticalAlign=top;spacingLeft=4;spacingRight=4;overflow=hidden;rotatable=0;points=[[0,0.5],[1,0.5]];portConstraint=eastwest;" parent="2" vertex="1">
                    <mxGeometry y="26" width="160" height="54" as="geometry"/>
                </mxCell>
                <mxCell id="18" style="edgeStyle=none;html=1;exitX=0.5;exitY=1;exitDx=0;exitDy=0;entryX=-0.01;entryY=0.099;entryDx=0;entryDy=0;entryPerimeter=0;" parent="1" source="10" target="14" edge="1">
                    <mxGeometry relative="1" as="geometry">
                        <Array as="points">
                            <mxPoint x="210" y="385"/>
                        </Array>
                    </mxGeometry>
                </mxCell>
                <mxCell id="10" value="Vehicle" style="swimlane;fontStyle=1;align=center;verticalAlign=top;childLayout=stackLayout;horizontal=1;startSize=26;horizontalStack=0;resizeParent=1;resizeParentMax=0;resizeLast=0;collapsible=1;marginBottom=0;rounded=1;" parent="1" vertex="1">
                    <mxGeometry x="130" y="211" width="160" height="110" as="geometry"/>
                </mxCell>
                <mxCell id="11" value="+ registration number&#10;+ brand&#10;+ owner&#10;+ model&#10;+ category" style="text;strokeColor=none;fillColor=none;align=left;verticalAlign=top;spacingLeft=4;spacingRight=4;overflow=hidden;rotatable=0;points=[[0,0.5],[1,0.5]];portConstraint=eastwest;rounded=1;" parent="10" vertex="1">
                    <mxGeometry y="26" width="160" height="84" as="geometry"/>
                </mxCell>
                <mxCell id="14" value="Main file" style="swimlane;fontStyle=1;align=center;verticalAlign=top;childLayout=stackLayout;horizontal=1;startSize=26;horizontalStack=0;resizeParent=1;resizeParentMax=0;resizeLast=0;collapsible=1;marginBottom=0;rounded=1;" parent="1" vertex="1">
                    <mxGeometry x="270" y="370" width="210" height="150" as="geometry"/>
                </mxCell>
                <mxCell id="15" value="+ vehicle register: map&lt;str, Vehicle&gt;&#10;+ passes: array&lt;Pass&gt;" style="text;strokeColor=none;fillColor=none;align=left;verticalAlign=top;spacingLeft=4;spacingRight=4;overflow=hidden;rotatable=0;points=[[0,0.5],[1,0.5]];portConstraint=eastwest;rounded=1;" parent="14" vertex="1">
                    <mxGeometry y="26" width="210" height="44" as="geometry"/>
                </mxCell>
                <mxCell id="16" value="" style="line;strokeWidth=1;fillColor=none;align=left;verticalAlign=middle;spacingTop=-1;spacingLeft=3;spacingRight=3;rotatable=0;labelPosition=right;points=[];portConstraint=eastwest;strokeColor=inherit;rounded=1;" parent="14" vertex="1">
                    <mxGeometry y="70" width="210" height="8" as="geometry"/>
                </mxCell>
                <mxCell id="17" value="+ getVehicleRegister()&#10;+ getPasses()&#10;+ mostActiveVehicle()&#10;+ mostActiveDate()" style="text;strokeColor=none;fillColor=none;align=left;verticalAlign=top;spacingLeft=4;spacingRight=4;overflow=hidden;rotatable=0;points=[[0,0.5],[1,0.5]];portConstraint=eastwest;rounded=1;" parent="14" vertex="1">
                    <mxGeometry y="78" width="210" height="72" as="geometry"/>
                </mxCell>
            </root>
        </mxGraphModel>
    </diagram>
</mxfile>